
<!-- saved from url=(0045)file:///C:/Users/rinatovic/Desktop/Brand.html -->
<svg xmlns:mydata="http://www.w3.org/2000/svg" mydata:contrastcolor="ffffff" mydata:template="Contrast" mydata:presentation="2.5" mydata:layouttype="undefined" mydata:specialfontid="undefined" mydata:id1="266" mydata:id2="483" mydata:companyname="Projectmon" mydata:companytagline="" version="1.1" xmlns="http://www.w3.org/2000/svg" xmlns:xlink="http://www.w3.org/1999/xlink" viewBox="0 0 550 470" style="background-color: rgb(255, 255, 255); background-image: radial-gradient(circle closest-side, rgba(255, 255, 255, 0.07) 0%, rgba(255, 255, 255, 0) 100%);"><g fill="#0084ca" fill-rule="none" stroke="none" stroke-width="1" stroke-linecap="butt" stroke-linejoin="miter" stroke-miterlimit="10" stroke-dasharray="" stroke-dashoffset="0" font-family="none" font-weight="none" font-size="none" text-anchor="none" style="mix-blend-mode: normal; stroke: rgb(0, 132, 202); stroke-width: 1; fill-opacity: 1; stroke-opacity: 0; transition: fill-opacity 1200ms linear 0s, stroke-opacity 1200ms 0s;"><g data-paper-data="{&quot;isGlobalGroup&quot;:true,&quot;bounds&quot;:{&quot;x&quot;:103.85999176839059,&quot;y&quot;:115.00000000000003,&quot;width&quot;:342.2800164632188,&quot;height&quot;:239.99999999999997}}" style="stroke: rgb(0, 132, 202); stroke-width: 1; fill-opacity: 1; stroke-opacity: 0; transition: fill-opacity 1200ms linear 0s, stroke-opacity 1200ms 0s;"><g data-paper-data="{&quot;isPrimaryText&quot;:true}" fill-rule="nonzero" style="stroke: rgb(0, 132, 202); stroke-width: 1; fill-opacity: 1; stroke-opacity: 0; transition: fill-opacity 1200ms linear 0s, stroke-opacity 1200ms 0s;"><path d="M139.97858,323.76984c0,-9.94672 -8.04203,-18.05929 -18.05929,-18.05929c-5.50244,0 -10.44053,2.46904 -13.7561,6.34897v-3.73884c0,-1.19925 -0.98762,-2.18687 -2.18687,-2.18687c-1.19925,0 -2.11632,0.98762 -2.11632,2.18687v41.83266c0,1.41088 1.05816,2.46904 2.3985,2.46904c1.41088,0 2.46904,-1.05816 2.46904,-2.46904v-13.96773c3.31557,3.52721 7.97148,5.71407 13.19175,5.71407c10.01726,0 18.05929,-8.11257 18.05929,-18.12984zM135.11103,323.76984c0,7.26604 -5.92571,13.19175 -13.19175,13.19175c-7.26604,0 -13.19175,-5.92571 -13.19175,-13.19175c0,-7.26604 5.92571,-13.1212 13.19175,-13.1212c7.26604,0 13.19175,5.85516 13.19175,13.1212z" data-paper-data="{&quot;glyphName&quot;:&quot;p&quot;,&quot;glyphIndex&quot;:0,&quot;firstGlyphOfWord&quot;:true,&quot;word&quot;:1}" style="stroke: rgb(0, 132, 202); stroke-width: 1; fill-opacity: 1; stroke-opacity: 0; stroke-dasharray: 245, 285; stroke-dashoffset: 0; transition: fill-opacity 1200ms linear 0s, stroke-opacity 1200ms 0s;"></path><path d="M162.76432,307.68578c-1.97524,-1.12871 -4.23265,-1.83415 -6.5606,-1.83415c-2.96285,0 -5.92571,1.12871 -7.97148,2.96285v-0.28218c0,-1.26979 -0.98762,-2.25741 -2.11632,-2.25741c-1.26979,0 -2.25741,0.98762 -2.25741,2.25741v30.47506c0,1.41088 1.12871,2.53959 2.53959,2.53959c1.26979,0 2.3985,-1.12871 2.3985,-2.53959v-20.81051c0,-4.09156 3.31557,-7.47768 7.40713,-7.47768c1.41088,0 2.75122,0.42326 4.02101,1.12871c1.12871,0.70544 2.68068,0.28218 3.38612,-0.84653c0.70544,-1.05816 0.28218,-2.61013 -0.84653,-3.31557z" data-paper-data="{&quot;glyphName&quot;:&quot;r&quot;,&quot;glyphIndex&quot;:1,&quot;word&quot;:1}" style="stroke: rgb(0, 132, 202); stroke-width: 1; fill-opacity: 1; stroke-opacity: 0; stroke-dasharray: 106, 146; stroke-dashoffset: 0; transition: fill-opacity 1200ms linear 0s, stroke-opacity 1200ms 0s;"></path><path d="M183.78647,305.99272c-9.94672,0 -18.05929,8.11257 -18.05929,18.05929c0,9.94672 8.11257,18.05929 18.05929,18.05929c9.94672,0 18.05929,-8.11257 18.05929,-18.05929c0,-9.94672 -8.11257,-18.05929 -18.05929,-18.05929zM183.78647,310.93081c7.26604,0 13.1212,5.85516 13.1212,13.1212c0,7.26604 -5.85516,13.19175 -13.1212,13.19175c-7.26604,0 -13.19175,-5.92571 -13.19175,-13.19175c0,-7.26604 5.92571,-13.1212 13.19175,-13.1212z" data-paper-data="{&quot;glyphName&quot;:&quot;o&quot;,&quot;glyphIndex&quot;:2,&quot;word&quot;:1}" style="stroke: rgb(0, 132, 202); stroke-width: 1; fill-opacity: 1; stroke-opacity: 0; stroke-dasharray: 197, 237; stroke-dashoffset: 0; transition: fill-opacity 1200ms linear 0s, stroke-opacity 1200ms 0s;"></path><path d="M217.5771,298.65613c0,1.41088 -0.98762,2.3985 -2.3985,2.3985c-1.26979,0 -2.3985,-0.98762 -2.3985,-2.3985c0,-1.26979 1.12871,-2.3985 2.3985,-2.3985c1.41088,0 2.3985,1.12871 2.3985,2.3985zM209.46452,354.52707c-1.12871,0.77599 -2.53959,0.6349 -3.38612,-0.70544c-0.77599,-1.26979 -0.42326,-2.68068 0.70544,-3.38612c3.66829,-2.25741 5.99625,-6.20788 5.99625,-10.65216v-31.39213c0,-1.41088 1.12871,-2.53959 2.3985,-2.53959c1.41088,0 2.53959,1.12871 2.53959,2.53959v31.39213c0,6.13734 -3.31557,11.3576 -8.25366,14.74372z" data-paper-data="{&quot;glyphName&quot;:&quot;j&quot;,&quot;glyphIndex&quot;:3,&quot;word&quot;:1}" style="stroke: rgb(0, 132, 202); stroke-width: 1; fill-opacity: 1; stroke-opacity: 0; stroke-dasharray: 124, 164; stroke-dashoffset: 0; transition: fill-opacity 1200ms linear 0s, stroke-opacity 1200ms 0s;"></path><path d="M257.36397,319.60773c-0.42326,-1.7636 -1.12871,-3.45666 -2.11632,-5.00863c-3.17448,-5.22026 -8.88856,-8.60638 -15.0259,-8.60638c-4.65591,0 -9.02965,1.83415 -12.34522,5.14972c-4.37373,4.37373 -6.06679,11.00488 -4.72646,17.00113c0.77599,3.24503 2.46904,6.27843 4.86754,8.67693c3.38612,3.38612 7.90094,5.29081 12.69794,5.29081c2.53959,0 5.00863,-0.49381 7.33659,-1.55197c2.18687,-0.98762 4.1621,-2.3985 5.85516,-4.1621c0.91707,-0.98762 0.84653,-2.53959 -0.14109,-3.45666c-0.98762,-0.91707 -2.53959,-0.91707 -3.45666,0.07054c-1.19925,1.34034 -2.68068,2.32796 -4.30319,3.10394c-1.62251,0.70544 -3.45666,1.05816 -5.29081,1.05816c-3.45666,0 -6.77223,-1.34034 -9.24128,-3.80938c-2.11632,-2.11632 -3.38612,-4.797 -3.73884,-7.68931c3.17448,0 6.34897,0 9.594,0h14.81426c1.26979,0 2.68068,0.07054 3.87993,-0.35272c1.12871,-0.42326 1.7636,-1.34034 1.83415,-2.53959c0,-1.12871 -0.28218,-2.25741 -0.49381,-3.17448zM227.80599,321.51242c0.35272,-2.04578 1.12871,-3.95047 2.32796,-5.57298c2.32796,-3.31557 5.99625,-5.4319 10.08781,-5.4319c4.09156,0 7.75985,2.11632 10.08781,5.4319c1.19925,1.62251 1.97524,3.45666 2.32796,5.57298z" data-paper-data="{&quot;glyphName&quot;:&quot;e&quot;,&quot;glyphIndex&quot;:4,&quot;word&quot;:1}" style="stroke: rgb(0, 132, 202); stroke-width: 1; fill-opacity: 1; stroke-opacity: 0; stroke-dasharray: 228, 268; stroke-dashoffset: 0; transition: fill-opacity 1200ms linear 0s, stroke-opacity 1200ms 0s;"></path><path d="M279.86754,342.1113c-10.01726,0 -18.12984,-8.11257 -18.12984,-18.12984c0,-10.01726 8.11257,-18.12984 18.12984,-18.12984c4.02101,0 7.8304,1.26979 11.00488,3.73884c1.12871,0.84653 1.34034,2.3985 0.49381,3.45666c-0.84653,1.12871 -2.3985,1.26979 -3.45666,0.49381c-2.32796,-1.83415 -5.07918,-2.75122 -8.04203,-2.75122c-7.26604,0 -13.19175,5.92571 -13.19175,13.19175c0,7.26604 5.92571,13.19175 13.19175,13.19175c2.89231,0 5.71407,-0.91707 7.97148,-2.68068c1.12871,-0.84653 2.68068,-0.6349 3.52721,0.42326c0.77599,1.12871 0.56435,2.61013 -0.49381,3.45666c-3.17448,2.46904 -6.98387,3.73884 -11.00488,3.73884z" data-paper-data="{&quot;glyphName&quot;:&quot;c&quot;,&quot;glyphIndex&quot;:5,&quot;word&quot;:1}" style="stroke: rgb(0, 132, 202); stroke-width: 1; fill-opacity: 1; stroke-opacity: 0; stroke-dasharray: 155, 195; stroke-dashoffset: 0; transition: fill-opacity 1200ms linear 0s, stroke-opacity 1200ms 0s;"></path><path d="M311.18913,336.60886h-3.24503c-3.59775,0 -6.5606,-2.89231 -6.5606,-6.5606v-19.39963h10.2289c1.12871,0 2.11632,-0.98762 2.11632,-2.25741c0,-1.12871 -0.98762,-2.11632 -2.11632,-2.11632h-10.2289v-8.81801c0,-1.26979 -1.12871,-2.3985 -2.3985,-2.3985c-1.41088,0 -2.53959,1.12871 -2.53959,2.3985v32.59138c0,6.27843 5.22026,11.49869 11.49869,11.49869h3.24503c1.41088,0 2.53959,-1.12871 2.53959,-2.53959c0,-1.26979 -1.12871,-2.3985 -2.53959,-2.3985z" data-paper-data="{&quot;glyphName&quot;:&quot;t&quot;,&quot;glyphIndex&quot;:6,&quot;word&quot;:1}" style="stroke: rgb(0, 132, 202); stroke-width: 1; fill-opacity: 1; stroke-opacity: 0; stroke-dasharray: 139, 179; stroke-dashoffset: 0; transition: fill-opacity 1200ms linear 0s, stroke-opacity 1200ms 0s;"></path><path d="M344.55649,341.54695c1.34034,0 2.46904,-1.05816 2.46904,-2.46904v-18.62364c0,-5.36135 4.37373,-9.80563 9.80563,-9.80563c5.36135,0 9.73509,4.44428 9.73509,9.80563v18.62364c0,1.41088 1.12871,2.46904 2.46904,2.46904c1.34034,0 2.46904,-1.05816 2.46904,-2.46904v-18.62364c0,-8.11257 -6.63115,-14.67317 -14.67317,-14.67317c-5.14972,0 -9.66454,2.61013 -12.27467,6.5606c-2.61013,-3.95047 -7.05441,-6.5606 -12.20413,-6.5606c-4.02101,0 -7.68931,1.62251 -10.29944,4.23265v-1.55197c0,-1.19925 -0.98762,-2.18687 -2.18687,-2.18687c-1.19925,0 -2.25741,0.98762 -2.25741,2.18687v30.61614c0,1.41088 1.19925,2.46904 2.53959,2.46904c1.34034,0 2.3985,-1.05816 2.3985,-2.46904v-18.62364c0,-5.36135 4.37373,-9.80563 9.80563,-9.80563c5.4319,0 9.80563,4.44428 9.80563,9.80563v18.62364c0,1.41088 1.05816,2.46904 2.3985,2.46904z" data-paper-data="{&quot;glyphName&quot;:&quot;m&quot;,&quot;glyphIndex&quot;:7,&quot;word&quot;:1}" style="stroke: rgb(0, 132, 202); stroke-width: 1; fill-opacity: 1; stroke-opacity: 0; stroke-dasharray: 281, 321; stroke-dashoffset: 0; transition: fill-opacity 1200ms linear 0s, stroke-opacity 1200ms 0s;"></path><path d="M393.79628,305.99272c-9.94672,0 -18.05929,8.11257 -18.05929,18.05929c0,9.94672 8.11257,18.05929 18.05929,18.05929c9.94672,0 18.05929,-8.11257 18.05929,-18.05929c0,-9.94672 -8.11257,-18.05929 -18.05929,-18.05929zM393.79628,310.93081c7.26604,0 13.1212,5.85516 13.1212,13.1212c0,7.26604 -5.85516,13.19175 -13.1212,13.19175c-7.26604,0 -13.19175,-5.92571 -13.19175,-13.19175c0,-7.26604 5.92571,-13.1212 13.19175,-13.1212z" data-paper-data="{&quot;glyphName&quot;:&quot;o&quot;,&quot;glyphIndex&quot;:8,&quot;word&quot;:1}" style="stroke: rgb(0, 132, 202); stroke-width: 1; fill-opacity: 1; stroke-opacity: 0; stroke-dasharray: 197, 237; stroke-dashoffset: 0; transition: fill-opacity 1200ms linear 0s, stroke-opacity 1200ms 0s;"></path><path d="M431.46683,305.78109c-4.02101,0 -7.68931,1.62251 -10.36998,4.30319v-1.62251c0,-1.19925 -0.91707,-2.18687 -2.11632,-2.18687c-1.19925,0 -2.18687,0.98762 -2.18687,2.18687v30.61614c0,1.34034 1.05816,2.46904 2.46904,2.46904c1.34034,0 2.3985,-1.12871 2.3985,-2.46904v-18.62364c0,-5.36135 4.37373,-9.80563 9.80563,-9.80563c5.36135,0 9.80563,4.44428 9.80563,9.80563v18.62364c0,1.34034 1.05816,2.46904 2.3985,2.46904c1.34034,0 2.46904,-1.12871 2.46904,-2.46904v-18.62364c0,-8.11257 -6.5606,-14.67317 -14.67317,-14.67317z" data-paper-data="{&quot;glyphName&quot;:&quot;n&quot;,&quot;glyphIndex&quot;:9,&quot;lastGlyphOfWord&quot;:true,&quot;word&quot;:1}" style="stroke: rgb(0, 132, 202); stroke-width: 1; fill-opacity: 1; stroke-opacity: 0; stroke-dasharray: 176, 216; stroke-dashoffset: 0; transition: fill-opacity 1200ms linear 0s, stroke-opacity 1200ms 0s;"></path></g></g></g></svg>