<svg width="526" height="124" viewBox="0 0 526 124" fill="none" xmlns="http://www.w3.org/2000/svg">
<g clip-path="url(#clip0_3946_41269)">
<path fill-rule="evenodd" clip-rule="evenodd" d="M38.0531 101.616L0 74.3083V124H38.067L38.0531 101.616Z" fill="#0F5392"/>
<path fill-rule="evenodd" clip-rule="evenodd" d="M0 50.3405L48.9061 86.0407L123.373 38.26V0L48.9061 47.7802L0 12.08V50.3405Z" fill="#3AAA3E"/>
<path fill-rule="evenodd" clip-rule="evenodd" d="M85.3057 86.5984V124H123.373V62.1731L85.3057 86.5984Z" fill="#0F5392"/>
<path d="M212.072 88.8387L211.921 60.5918L198.241 83.5846H191.553L177.949 61.353V88.8381H164.042V35.5425H176.429L195.124 66.3016L213.365 35.5425H225.752L225.904 88.8381H212.072V88.8387ZM257.063 69.4999L251.439 75.5147V88.8387H236.544V35.5431H251.439V57.699L272.035 35.5431H288.603L266.868 59.1457L289.743 88.8387H272.263L257.064 69.4999H257.063ZM334.582 61.0488C337.622 62.1149 340.003 63.7766 341.726 66.0359C343.449 68.2946 344.31 71.0224 344.31 74.2207C344.31 78.8901 342.435 82.4941 338.686 85.032C334.936 87.5698 329.515 88.8387 322.422 88.8387H293.694V35.5431H320.902C327.691 35.5431 332.859 36.7992 336.406 39.3114C339.952 41.8242 341.725 45.2119 341.725 49.4763C341.725 52.0142 341.104 54.285 339.863 56.2901C338.622 58.2952 336.861 59.8819 334.582 61.0488H334.582ZM308.59 46.4301V56.7086H318.926C323.993 56.7086 326.526 54.9827 326.526 51.5315C326.526 48.1304 323.993 46.4301 318.926 46.4301H308.59ZM321.207 77.9511C326.476 77.9511 329.11 76.1495 329.11 72.5455C329.11 68.9415 326.476 67.1399 321.207 67.1399H308.59V77.9518H321.207V77.9511ZM387.781 78.4838H365.286L361.106 88.8387H345.754L369.238 35.5431H384.058L407.618 88.8387H391.962L387.781 78.4838ZM383.373 67.3677L376.534 50.3139L369.694 67.3677H383.373H383.373ZM462.488 35.5431V88.8387H450.101L426.617 60.4397V88.8387H411.874V35.5431H424.261L447.744 63.9422V35.5431H462.488ZM493.647 69.4999L488.024 75.5147V88.8387H473.128V35.5431H488.024V57.699L508.62 35.5431H525.187L503.452 59.1457L526.328 88.8387H508.848L493.648 69.4999H493.647Z" fill="#0F5392"/>
</g>
<defs>
<clipPath id="clip0_3946_41269">
<rect width="526" height="124" fill="white"/>
</clipPath>
</defs>
</svg>
